<svg width="50" height="50" viewBox="0 0 50 50" fill="none" xmlns="http://www.w3.org/2000/svg">
  <circle cx="25" cy="25" r="25" fill="#006241"/>
  <path d="M35 18H15C13.8954 18 13 18.8954 13 20V32C13 33.1046 13.8954 34 15 34H35C36.1046 34 37 33.1046 37 32V20C37 18.8954 36.1046 18 35 18Z" stroke="white" stroke-width="2"/>
  <circle cx="20" cy="24" r="2" fill="white"/>
  <circle cx="30" cy="24" r="2" fill="white"/>
  <path d="M18 30C18 30 21 32 25 32C29 32 32 30 32 30" stroke="white" stroke-width="2" stroke-linecap="round"/>
  <path d="M13 38L16 34" stroke="white" stroke-width="2"/>
  <path d="M37 38L34 34" stroke="white" stroke-width="2"/>
</svg>