<svg width="50" height="50" viewBox="0 0 50 50" fill="none" xmlns="http://www.w3.org/2000/svg">
  <circle cx="25" cy="25" r="25" fill="#25D366"/>
  <path d="M34.0161 15.9839C31.2097 13.1774 27.5 11.6129 23.5484 11.6129C15.4032 11.6129 8.87097 18.1452 8.87097 26.2903C8.87097 28.7097 9.51613 31.0645 10.7419 33.0645L8.70968 41.2903L17.1452 39.2581C19.0645 40.3871 21.2742 40.9677 23.5484 40.9677C31.6935 40.9677 38.2258 34.4355 38.2258 26.2903C38.2258 22.3387 36.8226 18.7903 34.0161 15.9839ZM23.5484 38.3871C21.5161 38.3871 19.5484 37.8065 17.8387 36.7419L17.4194 36.5161L12.4516 37.7419L13.6774 32.9032L13.4516 32.4839C12.2903 30.7097 11.6452 28.5645 11.6452 26.2903C11.6452 19.5484 16.8065 14.3871 23.5484 14.3871C26.8387 14.3871 29.8387 15.6774 32.0968 17.9355C34.3548 20.1935 35.6452 23.1935 35.6452 26.2903C35.6452 33.0323 30.2903 38.3871 23.5484 38.3871ZM30.0645 28.9355C29.7097 28.7742 28.0645 28.0645 27.7742 27.9032C27.4839 27.7419 27.2581 27.6774 27.0323 28.0323C26.8065 28.3871 26.2258 29.0323 26.0645 29.2581C25.9032 29.4839 25.7419 29.5161 25.3871 29.3548C23.7097 28.5161 22.5806 27.8387 21.4516 26.0323C21.1613 25.5161 21.7097 25.5484 22.2258 24.5161C22.3871 24.2903 22.3226 24.0968 22.2258 23.9355C22.1290 23.7742 21.5806 22.1290 21.2903 21.4194C21 20.7097 20.7097 20.8065 20.5484 20.8065C20.3871 20.8065 20.1613 20.8065 19.9355 20.8065C19.7097 20.8065 19.3548 20.9032 19.0645 21.2581C18.7742 21.6129 18 22.3226 18 23.9677C18 25.6129 19.1935 27.1935 19.3548 27.4194C19.5161 27.6452 21.5806 30.8065 24.7419 32.2258C27.0323 33.2903 27.8387 33.3548 28.8387 33.1935C29.4516 33.0968 30.7742 32.4839 31.0645 31.6774C31.3548 30.8710 31.3548 30.1613 31.2581 30.0323C31.1613 29.9032 30.9355 29.8065 30.5806 29.6452L30.0645 28.9355Z" fill="white"/>
</svg>